<svg width="1777" height="485" viewBox="0 0 1777 485" fill="none" xmlns="http://www.w3.org/2000/svg">
<path d="M7.82952 181.764H146.331V213.622H93.1443V364.003H61.0162V213.622H7.82952V181.764ZM205.329 219.832V364.003H173.471V218.212C173.471 194.453 186.97 178.524 215.318 178.524C240.696 178.524 252.036 191.483 259.595 212.272L312.782 328.635C314.942 332.955 318.452 336.194 324.391 336.194C331.141 336.194 335.191 332.145 335.191 325.935V181.764H367.319V327.285C367.319 351.313 353.55 367.242 325.471 367.242C300.093 367.242 288.484 354.283 280.924 333.495L227.737 217.132C225.307 211.732 222.068 209.302 216.398 209.302C209.108 209.302 205.329 213.352 205.329 219.832ZM465.297 181.764H556.552V213.622H465.297C446.128 213.622 437.759 222.531 437.759 236.57C437.759 251.42 447.208 258.169 465.567 258.169H555.202V287.057H464.757C446.398 287.057 436.949 294.347 436.949 309.196C436.949 323.505 445.859 332.145 464.487 332.145H556.822V364.003H464.487C421.29 364.003 403.741 342.674 403.741 314.326C403.741 293.537 413.191 279.498 429.929 272.478C412.921 265.459 404.281 251.42 404.281 231.441C404.281 202.283 422.37 181.764 465.297 181.764ZM629.814 219.832V364.003H597.956V218.212C597.956 194.453 611.455 178.524 639.804 178.524C665.182 178.524 676.521 191.483 684.081 212.272L737.268 328.635C739.427 332.955 742.937 336.194 748.877 336.194C755.626 336.194 759.676 332.145 759.676 325.935V181.764H791.804V327.285C791.804 351.313 778.035 367.242 749.957 367.242C724.578 367.242 712.969 354.283 705.41 333.495L652.223 217.132C649.793 211.732 646.553 209.302 640.884 209.302C633.594 209.302 629.814 213.352 629.814 219.832ZM867.104 219.832V364.003H835.246V218.212C835.246 194.453 848.745 178.524 877.094 178.524C902.472 178.524 913.811 191.483 921.371 212.272L974.558 328.635C976.717 332.955 980.227 336.194 986.167 336.194C992.916 336.194 996.966 332.145 996.966 325.935V181.764H1029.09V327.285C1029.09 351.313 1015.33 367.242 987.247 367.242C961.868 367.242 950.259 354.283 942.7 333.495L889.513 217.132C887.083 211.732 883.843 209.302 878.174 209.302C870.884 209.302 867.104 213.352 867.104 219.832ZM1058.5 181.764H1197V213.622H1143.81V364.003H1111.68V213.622H1058.5V181.764Z" fill="#EFEFEF"/>
<path d="M1515.79 38.4216C1471.73 38.4216 1428.65 51.4881 1392.02 75.9688C1355.38 100.449 1326.82 135.245 1309.96 175.955C1293.1 216.665 1288.68 261.461 1297.28 304.678C1305.88 347.895 1327.1 387.593 1358.25 418.751C1389.41 449.909 1429.11 471.128 1472.33 479.724C1515.54 488.321 1560.34 483.909 1601.05 467.046C1641.76 450.184 1676.56 421.628 1701.04 384.99C1725.52 348.352 1738.58 305.277 1738.58 261.213L1515.79 261.213L1515.79 38.4216Z" stroke="black" stroke-width="0.440005" stroke-dasharray="3.08 3.08"/>
<mask id="path-3-inside-1_1_27" fill="white">
<path d="M1777 222.792C1777 193.534 1771.24 164.563 1760.04 137.533C1748.84 110.503 1732.43 85.9423 1711.75 65.2542C1691.06 44.5661 1666.5 28.1553 1639.47 16.959C1612.44 5.76266 1583.47 -1.28774e-05 1554.21 -9.73854e-06L1554.21 222.792L1777 222.792Z"/>
</mask>
<path d="M1777 222.792C1777 193.534 1771.24 164.563 1760.04 137.533C1748.84 110.503 1732.43 85.9423 1711.75 65.2542C1691.06 44.5661 1666.5 28.1553 1639.47 16.959C1612.44 5.76266 1583.47 -1.28774e-05 1554.21 -9.73854e-06L1554.21 222.792L1777 222.792Z" stroke="black" stroke-width="0.880009" stroke-dasharray="3.08 3.08" mask="url(#path-3-inside-1_1_27)"/>
</svg>
