<svg width="1054" height="677" viewBox="0 0 1054 677" fill="none" xmlns="http://www.w3.org/2000/svg">
<path d="M373.899 54.3104C312.409 54.3104 252.3 72.5443 201.173 106.706C150.046 140.868 110.197 189.424 86.6658 246.233C63.1346 303.043 56.9777 365.554 68.9738 425.863C80.9699 486.171 110.58 541.568 154.06 585.048C197.54 628.528 252.937 658.138 313.246 670.135C373.554 682.131 436.066 675.974 492.875 652.443C549.684 628.911 598.24 589.063 632.402 537.936C666.564 486.809 684.798 426.699 684.798 365.209L373.899 365.209L373.899 54.3104Z" stroke="black" stroke-width="0.48769" stroke-dasharray="3.41 3.41"/>
<mask id="path-2-inside-1_2_33" fill="white">
<path d="M738 310.899C738 270.071 729.958 229.643 714.334 191.923C698.71 154.203 675.809 119.93 646.94 91.0602C618.07 62.1905 583.797 39.2899 546.077 23.6658C508.357 8.04162 467.929 -1.797e-05 427.101 -1.35898e-05L427.101 310.899L738 310.899Z"/>
</mask>
<path d="M738 310.899C738 270.071 729.958 229.643 714.334 191.923C698.71 154.203 675.809 119.93 646.94 91.0602C618.07 62.1905 583.797 39.2899 546.077 23.6658C508.357 8.04162 467.929 -1.797e-05 427.101 -1.35898e-05L427.101 310.899L738 310.899Z" stroke="black" stroke-width="0.97538" stroke-dasharray="3.41 3.41" mask="url(#path-2-inside-1_2_33)"/>
<path d="M6.84839 288.598H127.994V316.464H81.4722V448H53.3702V316.464H6.84839V288.598ZM179.599 321.895V448H151.733V320.478C151.733 299.697 163.54 285.764 188.336 285.764C210.534 285.764 220.453 297.099 227.065 315.283L273.587 417.064C275.476 420.843 278.546 423.676 283.741 423.676C289.645 423.676 293.187 420.134 293.187 414.703V288.598H321.289V415.883C321.289 436.901 309.246 450.834 284.686 450.834C262.488 450.834 252.333 439.499 245.721 421.315L199.199 319.534C197.074 314.811 194.24 312.685 189.281 312.685C182.905 312.685 179.599 316.228 179.599 321.895ZM406.99 288.598H486.809V316.464H406.99C390.224 316.464 382.903 324.257 382.903 336.537C382.903 349.525 391.168 355.429 407.226 355.429H485.629V380.697H406.518C390.46 380.697 382.194 387.073 382.194 400.061C382.194 412.577 389.987 420.134 406.282 420.134H487.046V448H406.282C368.498 448 353.148 429.344 353.148 404.548C353.148 386.364 361.413 374.085 376.054 367.945C361.177 361.805 353.62 349.525 353.62 332.05C353.62 306.545 369.442 288.598 406.99 288.598ZM550.891 321.895V448H523.025V320.478C523.025 299.697 534.833 285.764 559.629 285.764C581.827 285.764 591.746 297.099 598.358 315.283L644.88 417.064C646.769 420.843 649.839 423.676 655.034 423.676C660.938 423.676 664.48 420.134 664.48 414.703V288.598H692.582V415.883C692.582 436.901 680.538 450.834 655.979 450.834C633.78 450.834 623.626 439.499 617.014 421.315L570.492 319.534C568.367 314.811 565.533 312.685 560.574 312.685C554.197 312.685 550.891 316.228 550.891 321.895ZM758.446 321.895V448H730.58V320.478C730.58 299.697 742.388 285.764 767.184 285.764C789.382 285.764 799.3 297.099 805.913 315.283L852.435 417.064C854.324 420.843 857.394 423.676 862.589 423.676C868.493 423.676 872.035 420.134 872.035 414.703V288.598H900.137V415.883C900.137 436.901 888.093 450.834 863.534 450.834C841.335 450.834 831.181 439.499 824.569 421.315L778.047 319.534C775.921 314.811 773.088 312.685 768.128 312.685C761.752 312.685 758.446 316.228 758.446 321.895ZM925.855 288.598H1047V316.464H1000.48V448H972.377V316.464H925.855V288.598Z" fill="#EFEFEF"/>
</svg>
