<svg width="1777" height="485" viewBox="0 0 1777 485" fill="none" xmlns="http://www.w3.org/2000/svg">
<path d="M7.82952 181.761H146.331V213.619H93.1443V364H61.0162V213.619H7.82952V181.761ZM205.329 219.829V364H173.471V218.209C173.471 194.45 186.97 178.521 215.318 178.521C240.696 178.521 252.036 191.481 259.595 212.269L312.782 328.632C314.942 332.952 318.452 336.192 324.391 336.192C331.141 336.192 335.191 332.142 335.191 325.932V181.761H367.319V327.282C367.319 351.311 353.55 367.24 325.471 367.24C300.093 367.24 288.484 354.281 280.924 333.492L227.737 217.129C225.307 211.729 222.068 209.3 216.398 209.3C209.108 209.3 205.329 213.349 205.329 219.829ZM465.297 181.761H556.552V213.619H465.297C446.128 213.619 437.759 222.529 437.759 236.568C437.759 251.417 447.208 258.167 465.567 258.167H555.202V287.055H464.757C446.398 287.055 436.949 294.344 436.949 309.193C436.949 323.502 445.859 332.142 464.487 332.142H556.822V364H464.487C421.29 364 403.741 342.671 403.741 314.323C403.741 293.534 413.191 279.495 429.929 272.476C412.921 265.456 404.281 251.417 404.281 231.438C404.281 202.28 422.37 181.761 465.297 181.761ZM629.814 219.829V364H597.956V218.209C597.956 194.45 611.455 178.521 639.804 178.521C665.182 178.521 676.521 191.481 684.081 212.269L737.268 328.632C739.427 332.952 742.937 336.192 748.877 336.192C755.626 336.192 759.676 332.142 759.676 325.932V181.761H791.804V327.282C791.804 351.311 778.035 367.24 749.957 367.24C724.578 367.24 712.969 354.281 705.41 333.492L652.223 217.129C649.793 211.729 646.553 209.3 640.884 209.3C633.594 209.3 629.814 213.349 629.814 219.829ZM867.104 219.829V364H835.246V218.209C835.246 194.45 848.745 178.521 877.094 178.521C902.472 178.521 913.811 191.481 921.371 212.269L974.558 328.632C976.717 332.952 980.227 336.192 986.167 336.192C992.916 336.192 996.966 332.142 996.966 325.932V181.761H1029.09V327.282C1029.09 351.311 1015.33 367.24 987.247 367.24C961.868 367.24 950.259 354.281 942.7 333.492L889.513 217.129C887.083 211.729 883.843 209.3 878.174 209.3C870.884 209.3 867.104 213.349 867.104 219.829ZM1058.5 181.761H1197V213.619H1143.81V364H1111.68V213.619H1058.5V181.761Z" fill="#EFEFEF"/>
<path d="M1515.79 38.4194C1471.73 38.4194 1428.65 51.4859 1392.02 75.9666C1355.38 100.447 1326.82 135.243 1309.96 175.952C1293.1 216.662 1288.68 261.458 1297.28 304.676C1305.88 347.893 1327.1 387.591 1358.25 418.749C1389.41 449.907 1429.11 471.126 1472.33 479.722C1515.54 488.319 1560.34 483.906 1601.05 467.044C1641.76 450.181 1676.56 421.626 1701.04 384.988C1725.52 348.35 1738.58 305.275 1738.58 261.211L1515.79 261.211L1515.79 38.4194Z" stroke="black" stroke-width="0.440005" stroke-dasharray="3.08 3.08"/>
<mask id="path-3-inside-1_105_73" fill="white">
<path d="M1777 222.789C1777 193.531 1771.24 164.56 1760.04 137.53C1748.84 110.5 1732.43 85.9394 1711.75 65.2513C1691.06 44.5631 1666.5 28.1524 1639.47 16.9561C1612.44 5.75973 1583.47 -0.00294256 1554.21 -0.00293943L1554.21 222.789L1777 222.789Z"/>
</mask>
<path d="M1777 222.789C1777 193.531 1771.24 164.56 1760.04 137.53C1748.84 110.5 1732.43 85.9394 1711.75 65.2513C1691.06 44.5631 1666.5 28.1524 1639.47 16.9561C1612.44 5.75973 1583.47 -0.00294256 1554.21 -0.00293943L1554.21 222.789L1777 222.789Z" stroke="black" stroke-width="0.880009" stroke-dasharray="3.08 3.08" mask="url(#path-3-inside-1_105_73)"/>
</svg>
