<svg width="1190" height="190" viewBox="0 0 1190 190" fill="none" xmlns="http://www.w3.org/2000/svg">
<path d="M0.829517 3.76124H139.331V35.6193H86.1443V186H54.0162V35.6193H0.829517V3.76124ZM198.329 41.8289V186H166.471V40.209C166.471 16.4505 179.97 0.521437 208.318 0.521437C233.696 0.521437 245.036 13.4806 252.595 34.2694L305.782 150.632C307.942 154.952 311.452 158.192 317.391 158.192C324.141 158.192 328.191 154.142 328.191 147.932V3.76124H360.319V149.282C360.319 173.311 346.55 189.24 318.471 189.24C293.093 189.24 281.484 176.281 273.924 155.492L220.737 39.1291C218.307 33.7294 215.068 31.2995 209.398 31.2995C202.108 31.2995 198.329 35.3493 198.329 41.8289ZM458.297 3.76124H549.552V35.6193H458.297C439.128 35.6193 430.759 44.5287 430.759 58.5679C430.759 73.4169 440.208 80.1665 458.567 80.1665H548.202V109.055H457.757C439.398 109.055 429.949 116.344 429.949 131.193C429.949 145.502 438.859 154.142 457.487 154.142H549.822V186H457.487C414.29 186 396.741 164.671 396.741 136.323C396.741 115.534 406.191 101.495 422.929 94.4756C405.921 87.4561 397.281 73.4169 397.281 53.4382C397.281 24.28 415.37 3.76124 458.297 3.76124ZM622.814 41.8289V186H590.956V40.209C590.956 16.4505 604.455 0.521437 632.804 0.521437C658.182 0.521437 669.521 13.4806 677.081 34.2694L730.268 150.632C732.427 154.952 735.937 158.192 741.877 158.192C748.626 158.192 752.676 154.142 752.676 147.932V3.76124H784.804V149.282C784.804 173.311 771.035 189.24 742.957 189.24C717.578 189.24 705.969 176.281 698.41 155.492L645.223 39.1291C642.793 33.7294 639.553 31.2995 633.884 31.2995C626.594 31.2995 622.814 35.3493 622.814 41.8289ZM860.104 41.8289V186H828.246V40.209C828.246 16.4505 841.745 0.521437 870.094 0.521437C895.472 0.521437 906.811 13.4806 914.371 34.2694L967.558 150.632C969.717 154.952 973.227 158.192 979.167 158.192C985.916 158.192 989.966 154.142 989.966 147.932V3.76124H1022.09V149.282C1022.09 173.311 1008.33 189.24 980.247 189.24C954.868 189.24 943.259 176.281 935.7 155.492L882.513 39.1291C880.083 33.7294 876.843 31.2995 871.174 31.2995C863.884 31.2995 860.104 35.3493 860.104 41.8289ZM1051.5 3.76124H1190V35.6193H1136.81V186H1104.68V35.6193H1051.5V3.76124Z" fill="#EFEFEF"/>
</svg>
